M48
;DRILL file {KiCad 4.0.7} date Friday, July 06, 2018 'PMt' 05:05:25 PM
;FORMAT={-:-/ absolute / inch / decimal}
FMAT,2
INCH,TZ
T1C0.032
T2C0.045
%
G90
G05
M72
T1
X6.79Y-2.735
X7.335Y-2.13
X7.415Y-3.73
X8.04Y-2.82
T2
X5.995Y-2.38
X5.995Y-2.48
X5.995Y-2.58
X5.995Y-2.68
X5.995Y-2.78
X5.995Y-2.88
X5.995Y-2.98
X5.995Y-3.08
X5.995Y-3.18
X5.995Y-3.28
X6.565Y-2.435
X6.565Y-2.535
X6.565Y-2.635
X6.565Y-2.735
X6.565Y-2.835
X6.565Y-2.935
X6.565Y-3.035
X6.565Y-3.135
X6.565Y-3.235
X6.565Y-3.335
X6.565Y-3.435
X6.565Y-3.535
X6.665Y-3.035
X6.665Y-3.135
X7.165Y-2.435
X7.165Y-2.535
X7.165Y-2.635
X7.165Y-2.735
X7.165Y-2.835
X7.165Y-2.935
X7.165Y-3.035
X7.165Y-3.135
X7.165Y-3.235
X7.165Y-3.335
X7.165Y-3.435
X7.165Y-3.535
X7.595Y-2.32
X7.595Y-2.42
X7.595Y-2.52
X7.595Y-2.62
X7.595Y-2.72
X7.595Y-2.82
X7.595Y-2.92
X7.595Y-3.02
X7.595Y-3.12
X7.595Y-3.22
X7.595Y-3.32
X7.595Y-3.42
X7.595Y-3.52
X7.595Y-3.62
X8.395Y-2.32
X8.395Y-2.42
X8.395Y-2.52
X8.395Y-2.62
X8.395Y-2.72
X8.395Y-2.82
X8.395Y-2.92
X8.395Y-3.02
X8.395Y-3.12
X8.395Y-3.22
X8.395Y-3.32
X8.395Y-3.42
X8.395Y-3.52
X8.395Y-3.62
T0
M30
