G04 #@! TF.FileFunction,Soldermask,Top*
%FSLAX46Y46*%
G04 Gerber Fmt 4.6, Leading zero omitted, Abs format (unit mm)*
G04 Created by KiCad (PCBNEW 4.0.7) date Friday, July 06, 2018 'PMt' 05:05:22 PM*
%MOMM*%
%LPD*%
G01*
G04 APERTURE LIST*
%ADD10C,0.100000*%
%ADD11C,2.305000*%
G04 APERTURE END LIST*
D10*
D11*
X152273000Y-83312000D03*
X152273000Y-80772000D03*
X152273000Y-78232000D03*
X152273000Y-75692000D03*
X152273000Y-73152000D03*
X152273000Y-70612000D03*
X152273000Y-68072000D03*
X152273000Y-65532000D03*
X152273000Y-62992000D03*
X152273000Y-60452000D03*
X166751000Y-61849000D03*
X166751000Y-64389000D03*
X166751000Y-66929000D03*
X166751000Y-69469000D03*
X166751000Y-72009000D03*
X166751000Y-74549000D03*
X166751000Y-77089000D03*
X166751000Y-79629000D03*
X166751000Y-82169000D03*
X166751000Y-84709000D03*
X166751000Y-87249000D03*
X166751000Y-89789000D03*
X169291000Y-77089000D03*
X169291000Y-79629000D03*
X181991000Y-89789000D03*
X181991000Y-87249000D03*
X181991000Y-84709000D03*
X181991000Y-82169000D03*
X181991000Y-79629000D03*
X181991000Y-77089000D03*
X181991000Y-74549000D03*
X181991000Y-72009000D03*
X181991000Y-69469000D03*
X181991000Y-66929000D03*
X181991000Y-64389000D03*
X181991000Y-61849000D03*
X192913000Y-58928000D03*
X192913000Y-61468000D03*
X192913000Y-64008000D03*
X192913000Y-66548000D03*
X192913000Y-69088000D03*
X192913000Y-71628000D03*
X192913000Y-74168000D03*
X192913000Y-76708000D03*
X192913000Y-79248000D03*
X192913000Y-81788000D03*
X192913000Y-84328000D03*
X192913000Y-86868000D03*
X192913000Y-89408000D03*
X192913000Y-91948000D03*
X213233000Y-91948000D03*
X213233000Y-89408000D03*
X213233000Y-86868000D03*
X213233000Y-84328000D03*
X213233000Y-81788000D03*
X213233000Y-79248000D03*
X213233000Y-76708000D03*
X213233000Y-74168000D03*
X213233000Y-71628000D03*
X213233000Y-69088000D03*
X213233000Y-66548000D03*
X213233000Y-64008000D03*
X213233000Y-61468000D03*
X213233000Y-58928000D03*
M02*
